<svg width="22" height="22" viewBox="0 0 22 22" fill="none" xmlns="http://www.w3.org/2000/svg">
<path d="M9.45312 9.45312H1.54687C0.692559 9.45312 0 10.1457 0 11C0 11.8543 0.692559 12.5469 1.54687 12.5469H9.45312V20.4531C9.45312 21.3074 10.1457 22 11 22C11.8543 22 12.5469 21.3074 12.5469 20.4531V12.5469H20.4531C21.3074 12.5469 22 11.8543 22 11C22 10.1457 21.3074 9.45312 20.4531 9.45312H12.5469V1.54687C12.5469 0.692559 11.8543 0 11 0C10.1457 0 9.45312 0.692559 9.45312 1.54687V9.45312Z" fill="#FC853A"/>
</svg>
