<svg width="26" height="26" viewBox="0 0 26 26" fill="none" xmlns="http://www.w3.org/2000/svg">
<path d="M19.334 6.26135C19.0189 6.26135 18.7632 6.00564 18.7632 5.69057V0.752452C18.7632 0.437381 19.0189 0.181671 19.334 0.181671C19.649 0.181671 19.9047 0.437381 19.9047 0.752452V5.69057C19.9047 6.00564 19.6493 6.26135 19.334 6.26135Z" fill="#FC853A"/>
<path d="M0.713604 20.5534C0.398532 20.5534 0.142822 20.2977 0.142822 19.9827V0.752468C0.142822 0.437396 0.398532 0.181686 0.713604 0.181686C1.02867 0.181686 1.28438 0.437396 1.28438 0.752468V19.9827C1.28438 20.2977 1.02867 20.5534 0.713604 20.5534Z" fill="#FC853A"/>
<path d="M22.2955 25.7892C21.9804 25.7892 21.7247 25.5335 21.7247 25.2184C21.7247 24.9034 21.9804 24.6476 22.2955 24.6476C23.4173 24.6476 24.3608 23.8711 24.6177 22.8277H19.334C19.0189 22.8277 18.7632 22.572 18.7632 22.2569C18.7632 21.9419 19.0189 21.6861 19.334 21.6861H25.2572C25.5723 21.6861 25.828 21.9419 25.828 22.2569C25.828 24.2047 24.2433 25.7892 22.2955 25.7892Z" fill="#FC853A"/>
<path d="M19.334 22.8277C19.0189 22.8277 18.7632 22.572 18.7632 22.2569V15.3168C18.7632 15.0017 19.0189 14.746 19.334 14.746C19.649 14.746 19.9047 15.0017 19.9047 15.3168V22.2569C19.9047 22.5723 19.6493 22.8277 19.334 22.8277Z" fill="#FC853A"/>
<path d="M3.6751 25.7892C1.7276 25.7892 0.142822 24.2047 0.142822 22.2569V19.9824C0.142822 19.6673 0.398532 19.4116 0.713603 19.4116C1.02867 19.4116 1.28438 19.6673 1.28438 19.9824V22.2569C1.28438 23.5751 2.35688 24.6476 3.6751 24.6476C3.99017 24.6476 4.24588 24.9033 4.24588 25.2184C4.24588 25.5335 3.99046 25.7892 3.6751 25.7892Z" fill="#FC853A"/>
<path d="M22.2956 25.7892H3.67527C3.3602 25.7892 3.10449 25.5335 3.10449 25.2184C3.10449 24.9034 3.3602 24.6476 3.67527 24.6476H22.2956C22.6107 24.6476 22.8664 24.9034 22.8664 25.2184C22.8664 25.5335 22.6109 25.7892 22.2956 25.7892Z" fill="#FC853A"/>
<path d="M3.67527 25.7892C3.3602 25.7892 3.10449 25.5335 3.10449 25.2184C3.10449 24.9034 3.3602 24.6476 3.67527 24.6476C4.99349 24.6476 6.06599 23.5751 6.06599 22.2569C6.06599 21.9419 6.3217 21.6861 6.63677 21.6861H19.3338C19.6489 21.6861 19.9046 21.9419 19.9046 22.2569C19.9046 22.572 19.6489 22.8277 19.3338 22.8277H7.16161C6.8882 24.5049 5.42871 25.7892 3.67527 25.7892Z" fill="#FC853A"/>
<path d="M12.0549 15.0032H4.67381C4.35874 15.0032 4.10303 14.7474 4.10303 14.4324C4.10303 14.1173 4.35874 13.8616 4.67381 13.8616H12.0549C12.3699 13.8616 12.6256 14.1173 12.6256 14.4324C12.6256 14.7474 12.3702 15.0032 12.0549 15.0032Z" fill="#FC853A"/>
<path d="M20.4164 11.6704C20.1102 11.6704 19.8602 11.4292 19.8462 11.1264C19.5434 11.1124 19.3022 10.8624 19.3022 10.5562C19.3022 10.2411 19.558 9.98541 19.873 9.98541C20.4875 9.98541 20.9872 10.4851 20.9872 11.0996C20.9872 11.4146 20.7318 11.6704 20.4164 11.6704Z" fill="#FC853A"/>
<path d="M19.334 9.20344C19.0189 9.20344 18.7632 8.94773 18.7632 8.63266V7.95971C18.7632 7.64464 19.0189 7.38893 19.334 7.38893C19.649 7.38893 19.9047 7.64464 19.9047 7.95971V8.63266C19.9047 8.94773 19.6493 9.20344 19.334 9.20344Z" fill="#FC853A"/>
<path d="M19.873 11.1267H18.7948C18.1804 11.1267 17.6807 10.627 17.6807 10.0125V9.17604C17.6807 8.56159 18.1804 8.06187 18.7948 8.06187H19.873C20.4875 8.06187 20.9872 8.56159 20.9872 9.17604C20.9872 9.49111 20.7315 9.74682 20.4164 9.74682C20.1105 9.74682 19.8605 9.50595 19.8462 9.20344H18.8219V9.98541H19.873C20.1881 9.98541 20.4438 10.2411 20.4438 10.5562C20.4438 10.8713 20.1881 11.1267 19.873 11.1267Z" fill="#FC853A"/>
<path d="M19.334 13.7234C19.0189 13.7234 18.7632 13.4677 18.7632 13.1527V12.4797C18.7632 12.1646 19.0189 11.9089 19.334 11.9089C19.649 11.9089 19.9047 12.1646 19.9047 12.4797V13.1527C19.9047 13.4677 19.6493 13.7234 19.334 13.7234Z" fill="#FC853A"/>
<path d="M19.873 13.0505H18.7948C18.1804 13.0505 17.6807 12.5508 17.6807 11.9363C17.6807 11.6213 17.9364 11.3656 18.2514 11.3656C18.5574 11.3656 18.8074 11.6064 18.8217 11.9089H19.8459V11.0996C19.8459 10.7845 20.1016 10.5288 20.4167 10.5288C20.7318 10.5288 20.9875 10.7845 20.9875 11.0996V11.9363C20.9872 12.5505 20.4875 13.0505 19.873 13.0505Z" fill="#FC853A"/>
<path d="M15.6314 18.4655H4.67381C4.35874 18.4655 4.10303 18.2098 4.10303 17.8947C4.10303 17.5797 4.35874 17.3239 4.67381 17.3239H15.6314C15.9465 17.3239 16.2022 17.5797 16.2022 17.8947C16.2022 18.2098 15.9465 18.4655 15.6314 18.4655Z" fill="#FC853A"/>
<path d="M17.0066 3.295C16.8753 3.295 16.7441 3.24991 16.6376 3.15972L14.679 1.50046L12.7206 3.15972C12.5077 3.34009 12.1955 3.34009 11.9826 3.15972L10.024 1.50046L8.06532 3.15972C7.85242 3.34009 7.5402 3.34009 7.3273 3.15972L5.36867 1.50046L3.41032 3.15972C3.19742 3.34009 2.8852 3.34009 2.6723 3.15972L0.344651 1.18796C0.104066 0.984189 0.0743858 0.624026 0.278155 0.383441C0.481924 0.142572 0.842087 0.113176 1.08267 0.316945L3.04131 1.97621L4.99966 0.316945C5.21256 0.136579 5.52478 0.136579 5.73768 0.316945L7.69631 1.97621L9.65495 0.316945C9.86785 0.136579 10.1801 0.136579 10.393 0.316945L12.3516 1.97621L14.31 0.316945C14.5229 0.136579 14.8351 0.136579 15.048 0.316945L17.0066 1.97621L18.965 0.316945C19.2055 0.113462 19.5654 0.142857 19.7695 0.383441C19.9732 0.624026 19.9433 0.984189 19.703 1.18796L17.3756 3.15972C17.2692 3.24991 17.1379 3.295 17.0066 3.295Z" fill="#FC853A"/>
<path d="M19.3341 15.8876C16.3655 15.8876 13.9502 13.4723 13.9502 10.5037C13.9502 7.53504 16.3655 5.11978 19.3341 5.11978C22.3024 5.11978 24.7177 7.53504 24.7177 10.5037C24.7177 13.4723 22.3024 15.8876 19.3341 15.8876ZM19.3341 6.26134C16.995 6.26134 15.0918 8.16433 15.0918 10.5037C15.0918 12.843 16.995 14.746 19.3341 14.746C21.6732 14.746 23.5761 12.8427 23.5761 10.5037C23.5761 8.16433 21.6732 6.26134 19.3341 6.26134Z" fill="#FC853A"/>
<path d="M10.0431 11.5411H4.67381C4.35874 11.5411 4.10303 11.2854 4.10303 10.9703C4.10303 10.6552 4.35874 10.3995 4.67381 10.3995H10.0431C10.3582 10.3995 10.6139 10.6552 10.6139 10.9703C10.6139 11.2854 10.3582 11.5411 10.0431 11.5411Z" fill="#FC853A"/>
<path d="M12.0549 8.079H4.67381C4.35874 8.079 4.10303 7.82329 4.10303 7.50822C4.10303 7.19315 4.35874 6.93744 4.67381 6.93744H12.0549C12.3699 6.93744 12.6256 7.19315 12.6256 7.50822C12.6256 7.82329 12.3702 8.079 12.0549 8.079Z" fill="#FC853A"/>
</svg>
