<svg width="40" height="40" viewBox="0 0 40 40" fill="none" xmlns="http://www.w3.org/2000/svg">
<path d="M32.5 25C32.1168 25.0029 31.7344 25.0352 31.3562 25.0967L28.8322 14.6409C28.9627 14.2735 28.9651 13.8728 28.8389 13.5039C28.7127 13.135 28.4654 12.8197 28.1372 12.6093L20.6702 7.77738C20.2463 7.50495 19.7614 7.34217 19.259 7.30369C19.4059 6.88775 19.4013 6.43335 19.2461 6.02046C19.0909 5.60756 18.795 5.26264 18.4106 5.04638L10.775 0.773314C10.3409 0.531105 9.82851 0.470929 9.35015 0.605985C8.87179 0.741042 8.46652 1.0603 8.22322 1.49375L7.00241 3.67538L2.11872 12.4018C1.87638 12.8358 1.81614 13.3483 1.95123 13.8267C2.08632 14.3051 2.4057 14.7104 2.83928 14.9536L10.475 19.2267C10.7536 19.3832 11.0679 19.4654 11.3875 19.4653C11.5372 19.4636 11.6861 19.4441 11.8312 19.4072C12.0667 19.8773 12.4198 20.2786 12.8562 20.5719L15.586 22.3916L11.9687 26.4908C10.6361 25.5009 9.01241 24.9815 7.35262 25.0141C5.69283 25.0468 4.09088 25.6297 2.79821 26.6713C1.50555 27.713 0.59535 29.1543 0.210498 30.7692C-0.174354 32.3841 -0.0120746 34.0811 0.671863 35.5937C1.3558 37.1064 2.52268 38.3492 3.98933 39.1269C5.45598 39.9047 7.13937 40.1734 8.77527 39.8909C10.4112 39.6084 11.907 38.7907 13.0278 37.5661C14.1487 36.3416 14.8312 34.7794 14.9683 33.125H18.2402C18.3867 33.5418 18.6762 33.8933 19.0572 34.1171C19.4382 34.341 19.8861 34.4227 20.3216 34.3478C20.757 34.2729 21.1519 34.0463 21.4363 33.7081C21.7206 33.3698 21.876 32.9419 21.875 32.5V31.3198L29.4891 22.6904L30.1398 25.3863C28.3552 25.9829 26.8607 27.2297 25.9538 28.8784C25.0469 30.5272 24.7942 32.457 25.2459 34.2837C25.6976 36.1104 26.8207 37.7 28.3915 38.736C29.9623 39.7721 31.8656 40.1786 33.7226 39.8747C35.5797 39.5708 37.2541 38.5787 38.4127 37.096C39.5713 35.6132 40.129 33.7486 39.9748 31.8732C39.8207 29.9978 38.966 28.2492 37.5808 26.9756C36.1957 25.7019 34.3817 24.9966 32.5 25ZM9.3139 2.10419C9.35388 2.03245 9.40765 1.96934 9.47213 1.91848C9.53661 1.86762 9.61052 1.83003 9.68959 1.80788C9.74521 1.79215 9.80273 1.78414 9.86053 1.78406C9.96711 1.78426 10.0719 1.81179 10.1648 1.864L17.8003 6.13706C17.8719 6.17715 17.935 6.23096 17.9858 6.29542C18.0367 6.35989 18.0743 6.43374 18.0966 6.51275C18.1189 6.59177 18.1254 6.67441 18.1158 6.75594C18.1061 6.83747 18.0805 6.91631 18.0404 6.98794L17.125 8.62394L8.39816 3.74056L9.3139 2.10419ZM11.0852 18.136L3.44997 13.8629C3.37832 13.8229 3.31527 13.769 3.26442 13.7046C3.21357 13.6401 3.17592 13.5663 3.15362 13.4873C3.13132 13.4082 3.12481 13.3256 3.13446 13.2441C3.1441 13.1625 3.16972 13.0837 3.20984 13.0121L7.78778 4.83125L16.5145 9.71463L11.936 17.8959C11.8959 17.9675 11.8421 18.0306 11.7777 18.0814C11.7132 18.1323 11.6394 18.17 11.5604 18.1923C11.4813 18.2146 11.3987 18.2211 11.3172 18.2114C11.2356 18.2018 11.1568 18.1761 11.0852 18.136ZM18.125 24.0845V31.875H14.9683C14.8258 30.1637 14.0979 28.5537 12.9072 27.3163L16.6352 23.0913L18.125 24.0845ZM12.0766 28.2578C13.0043 29.2517 13.581 30.5223 13.7183 31.875H8.88484L12.0766 28.2578ZM7.49997 38.75C6.51406 38.7522 5.54162 38.5212 4.66207 38.0758C3.78252 37.6303 3.02083 36.9832 2.43921 36.1871C1.8576 35.391 1.47256 34.4686 1.31556 33.4953C1.15856 32.522 1.23405 31.5253 1.53586 30.5867C1.83767 29.6482 2.35724 28.7943 3.05212 28.0949C3.74701 27.3955 4.59749 26.8704 5.53409 26.5626C6.4707 26.2547 7.46685 26.1728 8.44117 26.3235C9.41549 26.4742 10.3403 26.8532 11.1402 27.4297L7.03122 32.0865C6.95163 32.1767 6.89976 32.288 6.88185 32.4069C6.86393 32.5259 6.88073 32.6475 6.93022 32.7571C6.97971 32.8668 7.0598 32.9598 7.16086 33.0251C7.26192 33.0903 7.37967 33.125 7.49997 33.125H13.7183C13.5616 34.6659 12.8391 36.0939 11.6905 37.1329C10.5419 38.1719 9.04878 38.7481 7.49997 38.75ZM20.625 32.5C20.625 32.6658 20.5591 32.8247 20.4419 32.9419C20.3247 33.0592 20.1657 33.125 20 33.125C19.8342 33.125 19.6752 33.0592 19.558 32.9419C19.4408 32.8247 19.375 32.6658 19.375 32.5V23.75C19.375 23.6471 19.3496 23.5458 19.301 23.4551C19.2525 23.3644 19.1823 23.2871 19.0967 23.23L13.5492 19.5319C13.248 19.3294 13.0135 19.0424 12.8752 18.7069C12.9303 18.6436 12.9809 18.5766 13.0267 18.5063L17.9102 9.78019V9.77944L18.586 8.57181C18.7145 8.54277 18.8456 8.52714 18.9773 8.52519C19.3371 8.5256 19.689 8.63035 19.9905 8.82675L27.4575 13.6586C27.5117 13.6942 27.5586 13.7401 27.5951 13.7938C27.6315 13.8475 27.657 13.9078 27.6702 13.9713C27.6833 14.0348 27.6838 14.1003 27.6716 14.164C27.6595 14.2277 27.6348 14.2884 27.5992 14.3426C27.5636 14.3968 27.5176 14.4435 27.464 14.4799C27.4103 14.5164 27.35 14.5419 27.2865 14.555C27.223 14.5682 27.1575 14.5686 27.0938 14.5565C27.03 14.5443 26.9694 14.5197 26.9152 14.4841L22.2214 11.3548C22.1492 11.3067 22.0678 11.2742 21.9824 11.2593C21.897 11.2444 21.8094 11.2474 21.7252 11.2681C21.641 11.2889 21.562 11.3269 21.4933 11.3798C21.4246 11.4327 21.3676 11.4993 21.326 11.5754L17.576 18.4504C17.5198 18.5535 17.4937 18.6703 17.5008 18.7874C17.5079 18.9046 17.5478 19.0174 17.616 19.1129L20.625 23.325V32.5ZM21.875 29.4304V23.125C21.875 22.9948 21.8344 22.8678 21.7587 22.7618L21.5717 22.5H27.9904L21.875 29.4304ZM20.6788 21.25L18.8613 18.7054L22.0965 12.7742L26.2222 15.5242C26.4526 15.6769 26.716 15.7726 26.9908 15.8032C27.2655 15.8339 27.5435 15.7987 27.8019 15.7006L29.1414 21.25H20.6788ZM32.5 38.75C31.0243 38.751 29.596 38.2295 28.4681 37.2779C27.3403 36.3263 26.5858 35.0062 26.3383 33.5514C26.0909 32.0966 26.3665 30.6013 27.1163 29.3303C27.8661 28.0594 29.0417 27.095 30.4347 26.608L31.8923 32.6468C31.9313 32.808 32.0327 32.947 32.1742 33.0335C32.3157 33.1199 32.4857 33.1465 32.6468 33.1076C32.808 33.0686 32.9471 32.9672 33.0335 32.8257C33.1199 32.6842 33.1465 32.5142 33.1076 32.3531L31.65 26.3148C32.4984 26.1978 33.3619 26.2566 34.1867 26.4875C35.0114 26.7183 35.7799 27.1163 36.4444 27.6567C37.1089 28.1971 37.6551 28.8684 38.0492 29.6288C38.4433 30.3893 38.6768 31.2226 38.7352 32.0771C38.7936 32.9316 38.6757 33.789 38.3887 34.596C38.1018 35.403 37.652 36.1423 37.0672 36.7681C36.4825 37.3939 35.7753 37.8928 34.9896 38.2337C34.2039 38.5747 33.3565 38.7504 32.5 38.75ZM25 7.5C25.7416 7.5 26.4667 7.28007 27.0834 6.86801C27.7 6.45596 28.1807 5.87029 28.4645 5.18506C28.7483 4.49984 28.8226 3.74584 28.6779 3.01841C28.5332 2.29098 28.1761 1.6228 27.6516 1.09835C27.1272 0.573904 26.459 0.216751 25.7316 0.0720569C25.0041 -0.0726377 24.2501 0.00162482 23.5649 0.285453C22.8797 0.569282 22.294 1.04993 21.882 1.66661C21.4699 2.2833 21.25 3.00832 21.25 3.75C21.2511 4.74423 21.6465 5.69742 22.3495 6.40045C23.0525 7.10347 24.0057 7.49891 25 7.5ZM25 1.25C25.4944 1.25 25.9778 1.39662 26.3889 1.67133C26.8 1.94603 27.1204 2.33648 27.3097 2.79329C27.4989 3.25011 27.5484 3.75277 27.4519 4.23773C27.3555 4.72268 27.1174 5.16814 26.7677 5.51777C26.4181 5.8674 25.9726 6.1055 25.4877 6.20197C25.0027 6.29843 24.5001 6.24892 24.0433 6.0597C23.5864 5.87048 23.196 5.55005 22.9213 5.13893C22.6466 4.7278 22.5 4.24445 22.5 3.75C22.5007 3.08719 22.7643 2.45174 23.233 1.98306C23.7017 1.51438 24.3372 1.25075 25 1.25ZM12.6758 14.6381C12.8141 14.6382 12.9486 14.5924 13.0581 14.5079C13.1676 14.4233 13.246 14.3049 13.281 14.171C13.3159 14.0372 13.3055 13.8955 13.2513 13.7682C13.1971 13.641 13.1022 13.5353 12.9815 13.4677L12.9332 13.4406C13.1974 12.7088 13.2254 11.9126 13.0133 11.164C12.8012 10.4154 12.3597 9.75219 11.7508 9.26775L11.7807 9.2145C11.8222 9.14281 11.849 9.06357 11.8597 8.9814C11.8703 8.89923 11.8645 8.81576 11.8426 8.73586C11.8206 8.65596 11.783 8.58121 11.732 8.51597C11.6809 8.45073 11.6174 8.39629 11.5451 8.35583C11.4728 8.31536 11.3931 8.28968 11.3108 8.28027C11.2285 8.27087 11.1451 8.27792 11.0655 8.30102C10.986 8.32413 10.9118 8.36282 10.8473 8.41486C10.7828 8.4669 10.7294 8.53123 10.69 8.60413L10.663 8.65238C9.93118 8.38819 9.13491 8.36018 8.38632 8.5723C7.63772 8.78442 6.9745 9.22598 6.49003 9.83481L6.43672 9.805C6.36501 9.76332 6.28573 9.73633 6.20349 9.7256C6.12125 9.71487 6.0377 9.72061 5.9577 9.7425C5.8777 9.76439 5.80286 9.80197 5.73753 9.85308C5.67221 9.90418 5.61771 9.96777 5.57721 10.0401C5.53671 10.1125 5.51102 10.1922 5.50164 10.2746C5.49226 10.357 5.49937 10.4405 5.52256 10.5201C5.54576 10.5998 5.58457 10.674 5.63673 10.7385C5.6889 10.8029 5.75337 10.8564 5.82641 10.8957L12.3712 14.5582C12.4642 14.6105 12.5691 14.638 12.6758 14.6381ZM8.72466 9.77556C9.14835 9.65344 9.59689 9.64617 10.0243 9.75452C10.4517 9.86287 10.8427 10.0829 11.157 10.3921C11.4714 10.7013 11.6978 11.0886 11.8132 11.5142C11.9286 11.9397 11.9287 12.3884 11.8136 12.814L7.60465 10.4585C7.90998 10.1344 8.29667 9.89841 8.72466 9.77556Z" fill="#1C304A" fill-opacity="0.52"/>
</svg>
