<svg width="41" height="41" viewBox="0 0 41 41" fill="none" xmlns="http://www.w3.org/2000/svg">
<path d="M28.8399 10.1824C28.1699 9.43456 19.1409 18.9923 25.3033 28.8904C25.4934 29.3956 27.0997 29.1095 27.9888 29.1801V39.5147C27.9843 39.5973 27.9966 39.6799 28.0251 39.7575C28.0536 39.8352 28.0977 39.9062 28.1545 39.9662C28.2114 40.0263 28.2799 40.0741 28.3558 40.1068C28.4318 40.1395 28.5136 40.1563 28.5963 40.1563C28.679 40.1563 28.7609 40.1395 28.8368 40.1068C28.9128 40.0741 28.9813 40.0263 29.0381 39.9662C29.095 39.9062 29.139 39.8352 29.1675 39.7575C29.196 39.6799 29.2084 39.5973 29.2039 39.5147V10.7402C29.204 10.6219 29.1696 10.5061 29.105 10.4071C29.0403 10.308 28.9482 10.23 28.8399 10.1824ZM27.9888 27.965H26.1653C24.7525 25.5006 24.1672 22.6481 24.4954 19.8265C24.8236 17.0048 26.048 14.3628 27.9888 12.2885V27.965ZM16.2363 26.6974V39.5074C16.2363 39.6688 16.1722 39.8236 16.0581 39.9377C15.944 40.0518 15.7893 40.1159 15.6279 40.1159C15.4665 40.1159 15.3118 40.0518 15.1976 39.9377C15.0835 39.8236 15.0194 39.6688 15.0194 39.5074V26.7047C13.9004 26.5558 12.8733 26.0065 12.1282 25.1585C11.3831 24.3105 10.9705 23.2213 10.9667 22.0924V13.9816C10.9667 13.8202 11.0308 13.6655 11.145 13.5514C11.2591 13.4373 11.4138 13.3732 11.5752 13.3732C11.7366 13.3732 11.8913 13.4373 12.0054 13.5514C12.1195 13.6655 12.1836 13.8202 12.1836 13.9816V22.0924C12.1842 22.8996 12.4686 23.6809 12.987 24.2996C13.5054 24.9183 14.2248 25.335 15.0194 25.4769V13.9816C15.0194 13.8202 15.0835 13.6655 15.1976 13.5514C15.3118 13.4373 15.4665 13.3732 15.6279 13.3732C15.7893 13.3732 15.944 13.4373 16.0581 13.5514C16.1722 13.6655 16.2363 13.8202 16.2363 13.9816V25.4715C17.03 25.3298 17.7487 24.9138 18.267 24.2962C18.7853 23.6787 19.0703 22.8987 19.0721 22.0924V13.9816C19.0721 13.8202 19.1362 13.6655 19.2503 13.5514C19.3644 13.4373 19.5192 13.3732 19.6806 13.3732C19.842 13.3732 19.9967 13.4373 20.1108 13.5514C20.2249 13.6655 20.289 13.8202 20.289 13.9816V22.0924C20.2853 23.2213 19.8727 24.3105 19.1276 25.1585C18.3825 26.0065 17.3553 26.5558 16.2363 26.7047V26.6974ZM26.1182 39.3137C23.554 40.0596 20.8672 40.2886 18.2138 39.9873C18.1316 39.9821 18.0512 39.9603 17.9777 39.9231C17.9042 39.8859 17.839 39.8342 17.786 39.771C17.7331 39.7079 17.6935 39.6347 17.6697 39.5558C17.6459 39.4769 17.6384 39.394 17.6476 39.3121C17.6568 39.2302 17.6826 39.1511 17.7233 39.0794C17.764 39.0078 17.8188 38.9452 17.8845 38.8954C17.9501 38.8456 18.0252 38.8096 18.1052 38.7897C18.1851 38.7698 18.2683 38.7663 18.3496 38.7795C20.8419 39.058 23.3647 38.8433 25.7741 38.1475C25.9297 38.1019 26.0971 38.1199 26.2394 38.1977C26.3817 38.2755 26.4872 38.4066 26.5329 38.5622C26.5785 38.7178 26.5604 38.8851 26.4827 39.0274C26.4049 39.1697 26.2738 39.2753 26.1182 39.3209V39.3137ZM31.5652 36.7785C31.4311 36.8569 31.272 36.881 31.1207 36.8459C30.9693 36.8108 30.8371 36.7191 30.7512 36.5897C30.6653 36.4602 30.6321 36.3028 30.6586 36.1497C30.685 35.9966 30.769 35.8594 30.8934 35.7662C46.3418 25.4914 39.0712 1.28571 20.49 1.2169C16.1377 1.21524 11.919 2.71992 8.55013 5.47546C5.18125 8.231 2.86985 12.0676 2.00838 16.3337C1.14691 20.5999 1.78847 25.0328 3.82413 28.8796C5.8598 32.7265 9.16409 35.7503 13.176 37.4376C13.3205 37.503 13.4338 37.6223 13.4917 37.77C13.5496 37.9177 13.5475 38.0822 13.4858 38.2284C13.4242 38.3746 13.3079 38.4909 13.1617 38.5526C13.0156 38.6142 12.8511 38.6164 12.7034 38.5586C-7.28669 29.8393 -1.33622 0.313278 20.49 0C40.2591 0.0688125 48.0096 25.8427 31.5652 36.7893V36.7785ZM30.7829 29.5169C32.734 27.3932 33.9805 24.7181 34.3516 21.8582C34.7227 18.9983 34.2003 16.0936 32.8559 13.5422C31.5115 10.9909 29.411 8.91771 26.8422 7.6069C24.2734 6.2961 21.3622 5.8118 18.5074 6.22039C15.6526 6.62898 12.994 7.91045 10.896 9.88917C8.79808 11.8679 7.3634 14.447 6.78865 17.273C6.2139 20.0991 6.5272 23.0337 7.68562 25.6747C8.84404 28.3157 10.7909 30.5338 13.2593 32.025C13.3704 32.0951 13.456 32.1992 13.5032 32.3218C13.5505 32.4444 13.5569 32.579 13.5215 32.7056C13.4861 32.8321 13.4107 32.9439 13.3067 33.0242C13.2027 33.1045 13.0756 33.1491 12.9442 33.1513C10.6005 31.8677 8.65013 29.9706 7.30207 27.6633C5.954 25.356 5.259 22.7255 5.29152 20.0534C5.29152 17.581 5.89467 15.146 7.04866 12.9594C8.20266 10.7729 9.87265 8.9009 11.9138 7.50578C13.955 6.11067 16.3056 5.23457 18.762 4.95346C21.2183 4.67236 23.7062 4.99473 26.0097 5.89264C28.3133 6.79054 30.3631 8.23686 31.9812 10.1062C33.5993 11.9755 34.737 14.2113 35.2956 16.6197C35.8542 19.0282 35.8167 21.5366 35.1866 23.9273C34.5564 26.318 33.3525 28.5189 31.6793 30.3391C31.5703 30.4591 31.418 30.531 31.2561 30.5388C31.0941 30.5466 30.9356 30.4897 30.8155 30.3807C30.6955 30.2717 30.6236 30.1195 30.6158 29.9575C30.608 29.7955 30.6649 29.637 30.7739 29.5169H30.7829ZM26.5129 33.3614C27.3459 34.9912 17.2414 36.161 17.6814 34.3863C17.7064 34.2275 17.7931 34.0849 17.9226 33.9897C18.0522 33.8944 18.2141 33.8541 18.3731 33.8775C20.8549 34.2537 23.392 33.9592 25.7216 33.0246C25.7961 32.9945 25.8758 32.9795 25.9561 32.9805C26.0364 32.9816 26.1158 32.9986 26.1894 33.0307C26.2631 33.0627 26.3296 33.1091 26.3852 33.1671C26.4407 33.2251 26.4842 33.2936 26.5129 33.3686V33.3614Z" fill="#1C304A" fill-opacity="0.52"/>
</svg>
