<svg width="25" height="25" viewBox="0 0 25 25" fill="none" xmlns="http://www.w3.org/2000/svg">
<path d="M16.6654 1.65496C16.6654 1.69494 16.6654 1.69494 16.6654 1.69494L13.708 5.01281H4.99563C4.1164 5.01281 3.35706 5.73235 3.35706 6.65176V20.0032C3.35706 20.8826 4.07643 21.6422 4.99563 21.6422H9.23192C9.75147 21.7221 10.271 21.7221 10.7906 21.6422H18.3439C19.2232 21.6422 19.9825 20.9226 19.9825 20.0032V12.9677L23.2197 9.37002L23.3396 9.44997V19.9632C23.3396 22.7614 21.1015 25 18.3439 25H5.03559C2.23804 25 0 22.7614 0 19.9632V6.65176C0 3.89353 2.23804 1.65496 5.03559 1.65496H16.6654ZM18.7836 4.37322L21.0216 6.85163L12.8687 16.1257C12.5091 16.5254 11.39 17.0451 9.47171 17.6847C9.43175 17.7247 9.35182 17.7247 9.27189 17.6847C9.11203 17.6447 8.99213 17.4448 9.07206 17.2849C9.59161 15.4061 10.0712 14.2469 10.4309 13.8471L18.7836 4.37322ZM19.8626 3.09404L22.1406 0.535679C22.7401 -0.143886 23.7792 -0.18386 24.4586 0.45573C25.138 1.05535 25.178 2.13465 24.5785 2.81422L22.1007 5.61243L19.8626 3.09404Z" fill="#FC853A"/>
</svg>
