<svg width="24" height="28" viewBox="0 0 24 28" fill="none" xmlns="http://www.w3.org/2000/svg">
<path d="M6.69337 20.9882H3.69337V10.6682C3.69337 6.98818 6.65337 3.98817 10.3734 3.98817H10.3334V2.30817C10.3334 1.38817 11.0534 0.628167 12.0134 0.668167C12.9334 0.668167 13.6934 1.38817 13.6934 2.30817V3.98817H13.6534C17.3734 3.98817 20.3334 6.98818 20.3334 10.6682V20.9882H17.3334V10.6682C17.3334 8.62818 15.6934 6.98818 13.6934 6.98818H10.3334C8.33337 6.98818 6.69337 8.62818 6.69337 10.6682V20.9882ZM0.333374 22.4682C0.333374 21.6282 1.01337 20.9482 1.85337 20.9882H22.1734C23.0134 20.9882 23.6534 21.6682 23.6934 22.4682C23.6934 23.3082 23.0134 23.9882 22.1734 23.9882H1.85337C1.01337 23.9882 0.333374 23.3082 0.333374 22.5082V22.4682ZM9.53337 25.3082H14.5334V26.5882C14.5334 27.2682 13.9734 27.8282 13.2534 27.8282H10.7734C10.0934 27.8282 9.49337 27.2682 9.53337 26.5882V25.3082Z" fill="#1C304A" fill-opacity="0.52"/>
</svg>
