<svg width="24" height="29" viewBox="0 0 24 29" fill="none" xmlns="http://www.w3.org/2000/svg">
<path d="M12 5.32V1.48C12 1.12 12.28 0.839996 12.6 0.839996C12.76 0.839996 12.92 0.879996 13.04 0.999996L18.32 6.6C18.8 7.08 18.8 7.88 18.32 8.4L13.04 14C12.8 14.24 12.4 14.24 12.16 14C12.08 13.88 12 13.72 12 13.52V8.32C7.32002 8.32 3.52002 12.12 3.52002 16.84C3.52002 21.52 7.32002 25.32 12 25.32C16.68 25.32 20.52 21.52 20.52 16.84C20.52 16 21.16 15.32 22 15.32C22.84 15.32 23.52 16 23.52 16.84C23.52 23.2 18.36 28.32 12 28.32C5.64002 28.32 0.52002 23.2 0.52002 16.84C0.52002 10.48 5.64002 5.32 12 5.32Z" fill="#F58319"/>
</svg>
