<svg width="25" height="40" viewBox="0 0 25 40" fill="none" xmlns="http://www.w3.org/2000/svg">
<path d="M22.5 0H2.5C2.00289 0.000545924 1.52629 0.198265 1.17478 0.549778C0.823265 0.90129 0.625546 1.37789 0.625 1.875V38.125C0.625546 38.6221 0.823265 39.0987 1.17478 39.4502C1.52629 39.8017 2.00289 39.9995 2.5 40H22.5C22.9971 39.9995 23.4737 39.8017 23.8252 39.4502C24.1767 39.0987 24.3745 38.6221 24.375 38.125V1.875C24.3745 1.37789 24.1767 0.90129 23.8252 0.549778C23.4737 0.198265 22.9971 0.000545924 22.5 0ZM19.0766 1.25L18.4839 2.73194C18.4379 2.84821 18.358 2.94792 18.2545 3.01805C18.151 3.08817 18.0288 3.12545 17.9037 3.125H7.09625C6.97123 3.12545 6.84899 3.08817 6.74549 3.01805C6.642 2.94792 6.56206 2.84821 6.51613 2.73194L5.92338 1.25H19.0766ZM23.125 38.125C23.1248 38.2907 23.0589 38.4495 22.9417 38.5667C22.8245 38.6839 22.6657 38.7498 22.5 38.75H2.5C2.33431 38.7498 2.17546 38.6839 2.0583 38.5667C1.94113 38.4495 1.87521 38.2907 1.875 38.125V1.875C1.87521 1.70931 1.94113 1.55046 2.0583 1.4333C2.17546 1.31613 2.33431 1.25021 2.5 1.25H4.57662L5.35525 3.19644C5.49344 3.54506 5.73346 3.84397 6.04401 4.05419C6.35456 4.26442 6.72124 4.37621 7.09625 4.375H17.9037C18.2788 4.37621 18.6454 4.26442 18.956 4.05419C19.2665 3.84397 19.5066 3.54506 19.6447 3.19644L20.4234 1.25H22.5C22.6657 1.25021 22.8245 1.31613 22.9417 1.4333C23.0589 1.55046 23.1248 1.70931 23.125 1.875V38.125ZM19.9912 15.4804C19.8978 12.1012 16.5769 9.375 12.5 9.375C8.42313 9.375 5.10219 12.1012 5.00875 15.4804C4.81042 15.6536 4.6513 15.8671 4.54201 16.1066C4.43271 16.3461 4.37575 16.6062 4.37492 16.8695C4.37409 17.1328 4.42942 17.3932 4.5372 17.6334C4.64499 17.8736 4.80277 18.0881 5 18.2625V19.375C5.00055 19.8721 5.19827 20.3487 5.54978 20.7002C5.90129 21.0517 6.37789 21.2495 6.875 21.25H18.125C18.6221 21.2495 19.0987 21.0517 19.4502 20.7002C19.8017 20.3487 19.9995 19.8721 20 19.375V18.2625C20.1972 18.0881 20.3549 17.8736 20.4627 17.6334C20.5705 17.3933 20.6258 17.1328 20.625 16.8696C20.6241 16.6063 20.5672 16.3463 20.4579 16.1068C20.3486 15.8672 20.1895 15.6536 19.9912 15.4804ZM5.625 16.875C5.62522 16.7093 5.69113 16.5505 5.8083 16.4333C5.92546 16.3161 6.08431 16.2502 6.25 16.25H18.75C18.9158 16.25 19.0747 16.3158 19.1919 16.4331C19.3092 16.5503 19.375 16.7092 19.375 16.875C19.375 17.0408 19.3092 17.1997 19.1919 17.3169C19.0747 17.4342 18.9158 17.5 18.75 17.5H6.25C6.08431 17.4998 5.92546 17.4339 5.8083 17.3167C5.69113 17.1995 5.62522 17.0407 5.625 16.875ZM12.5 10.625C15.6812 10.625 18.3094 12.5375 18.6958 15H6.30419C6.69063 12.5375 9.31875 10.625 12.5 10.625ZM18.75 19.375C18.7498 19.5407 18.6839 19.6995 18.5667 19.8167C18.4495 19.9339 18.2907 19.9998 18.125 20H6.875C6.70931 19.9998 6.55046 19.9339 6.4333 19.8167C6.31613 19.6995 6.25022 19.5407 6.25 19.375V18.75H18.75V19.375ZM20 26.875H5C4.83424 26.875 4.67527 26.9408 4.55806 27.0581C4.44085 27.1753 4.375 27.3342 4.375 27.5V35C4.375 35.1658 4.44085 35.3247 4.55806 35.4419C4.67527 35.5592 4.83424 35.625 5 35.625H20C20.1658 35.625 20.3247 35.5592 20.4419 35.4419C20.5592 35.3247 20.625 35.1658 20.625 35V27.5C20.625 27.3342 20.5592 27.1753 20.4419 27.0581C20.3247 26.9408 20.1658 26.875 20 26.875ZM19.375 34.375H5.625V28.125H19.375V34.375ZM6.875 31.25C6.875 31.0842 6.94085 30.9253 7.05806 30.8081C7.17527 30.6908 7.33424 30.625 7.5 30.625H16.9572L16.355 29.7217C16.3086 29.6534 16.2761 29.5766 16.2596 29.4958C16.243 29.4149 16.2426 29.3315 16.2584 29.2505C16.2742 29.1695 16.3059 29.0924 16.3517 29.0237C16.3975 28.955 16.4564 28.896 16.5251 28.8502C16.5938 28.8044 16.6709 28.7727 16.7519 28.7568C16.8329 28.741 16.9163 28.7414 16.9972 28.7579C17.0781 28.7745 17.1549 28.8069 17.2231 28.8533C17.2914 28.8997 17.3498 28.9592 17.395 29.0283L18.645 30.9033C18.6571 30.9254 18.6678 30.9481 18.6771 30.9715C18.7237 31.057 18.748 31.1527 18.748 31.25C18.748 31.3473 18.7237 31.443 18.6771 31.5285C18.6678 31.5519 18.6571 31.5746 18.645 31.5967L17.395 33.4717C17.3498 33.5408 17.2914 33.6003 17.2231 33.6467C17.1549 33.6931 17.0781 33.7255 16.9972 33.7421C16.9163 33.7586 16.8329 33.759 16.7519 33.7432C16.6709 33.7273 16.5938 33.6956 16.5251 33.6498C16.4564 33.604 16.3975 33.545 16.3517 33.4763C16.3059 33.4076 16.2742 33.3305 16.2584 33.2495C16.2426 33.1685 16.243 33.0851 16.2596 33.0042C16.2761 32.9234 16.3086 32.8466 16.355 32.7783L16.9572 31.875H7.5C7.33424 31.875 7.17527 31.8092 7.05806 31.6919C6.94085 31.5747 6.875 31.4158 6.875 31.25Z" fill="#1C304A" fill-opacity="0.52"/>
</svg>
