<svg width="35" height="34" viewBox="0 0 35 34" fill="none" xmlns="http://www.w3.org/2000/svg">
<path d="M30.1795 13.8193L30.2595 14.0414L30.4818 14.1208L33.65 15.2523V18.7476L30.4818 19.8791L30.2069 19.9773L30.1572 20.265C29.9218 21.6305 29.3548 22.8192 28.7248 23.8368L28.5759 24.0774L28.7055 24.329L30.2383 27.3045L27.8045 29.7383L24.829 28.2055L24.5989 28.087L24.3693 28.2064C23.1627 28.8338 21.9523 29.2223 20.6976 29.6238L20.4609 29.6995L20.3784 29.9339L19.2459 33.15H15.754L14.6216 29.9339L14.5203 29.6463L14.2183 29.6047C12.8637 29.4178 11.6815 28.8553 10.6632 28.2248L10.4226 28.0759L10.171 28.2055L7.19545 29.7383L4.76161 27.3045L6.29446 24.329L6.41298 24.0989L6.29358 23.8693C5.66613 22.6627 5.2777 21.4523 4.87619 20.1976L4.80045 19.9609L4.56604 19.8784L1.34998 18.7459V15.254L4.56604 14.1216L4.80045 14.0391L4.87619 13.8024C5.28029 12.5395 5.66334 11.3514 6.27511 10.3632L6.42405 10.1226L6.29446 9.871L4.76161 6.89545L7.3971 4.25996L10.4237 5.79585L10.6808 5.9263L10.9225 5.7692C11.7403 5.23759 12.7393 4.88262 13.8315 4.49454C13.9922 4.43744 14.1549 4.37962 14.3193 4.32042L14.5414 4.24046L14.6208 4.01814L15.7523 0.849976H19.2476L20.3791 4.01814L20.4773 4.2931L20.765 4.34271C22.1305 4.57813 23.3192 5.14518 24.3368 5.77511L24.5774 5.92405L24.829 5.79446L27.8045 4.26161L30.2383 6.69545L28.7055 9.671L28.587 9.90105L28.7064 10.1307C29.2304 11.1385 29.5852 12.1421 29.9531 13.1828C30.0276 13.3934 30.1025 13.6054 30.1795 13.8193ZM8.64998 17C8.64998 21.8761 12.6238 25.85 17.5 25.85C22.3761 25.85 26.35 21.8761 26.35 17C26.35 12.1238 22.3761 8.14998 17.5 8.14998C12.6238 8.14998 8.64998 12.1238 8.64998 17Z" stroke="#1C304A" stroke-opacity="0.52"/>
</svg>
