<svg width="28" height="27" viewBox="0 0 28 27" fill="none" xmlns="http://www.w3.org/2000/svg">
<path d="M0 0V26.25H28V0H0ZM8.75 24.5H1.75V21H8.75V24.5ZM8.75 19.25H1.75V15.75H8.75V19.25ZM8.75 14H1.75V10.5H8.75V14ZM8.75 8.75H1.75V5.25H8.75V8.75ZM17.5 24.5H10.5V21H17.5V24.5ZM17.5 19.25H10.5V15.75H17.5V19.25ZM17.5 14H10.5V10.5H17.5V14ZM17.5 8.75H10.5V5.25H17.5V8.75ZM26.25 24.5H19.25V21H26.25V24.5ZM26.25 19.25H19.25V15.75H26.25V19.25ZM26.25 14H19.25V10.5H26.25V14ZM26.25 8.75H19.25V5.25H26.25V8.75Z" fill="#1C304A" fill-opacity="0.52"/>
</svg>
