<svg width="33" height="40" viewBox="0 0 33 40" fill="none" xmlns="http://www.w3.org/2000/svg">
<path d="M30.875 7.47619C30.863 7.15081 30.7268 6.84238 30.4944 6.61432C30.262 6.38626 29.9511 6.25588 29.6256 6.25H20.8756V4.375C20.8756 3.80047 20.7624 3.23156 20.5425 2.70076C20.3227 2.16996 20.0004 1.68766 19.5942 1.28141C19.1879 0.875152 18.7056 0.552891 18.1748 0.333027C17.644 0.113163 17.0751 0 16.5006 0C15.926 0 15.3571 0.113163 14.8263 0.333027C14.2955 0.552891 13.8132 0.875152 13.407 1.28141C13.0007 1.68766 12.6785 2.16996 12.4586 2.70076C12.2387 3.23156 12.1256 3.80047 12.1256 4.375V6.25H3.375C3.04989 6.25576 2.7393 6.38572 2.50698 6.61323C2.27465 6.84073 2.1382 7.14852 2.12563 7.47344L0.875 36.875C0.885876 37.7004 1.21861 38.489 1.80232 39.0727C2.38603 39.6564 3.17458 39.9891 4 40H29.0006C29.8301 39.9877 30.6217 39.6509 31.2058 39.0617C31.7899 38.4726 32.1199 37.678 32.125 36.8484L30.875 7.47619ZM13.3753 4.375C13.3753 3.5462 13.7046 2.75134 14.2906 2.16529C14.8767 1.57924 15.6715 1.25 16.5003 1.25C17.3291 1.25 18.124 1.57924 18.71 2.16529C19.2961 2.75134 19.6253 3.5462 19.6253 4.375V6.25H13.3753V4.375ZM29.0003 38.75H4C3.51086 38.7384 3.04454 38.5407 2.69605 38.1973C2.34756 37.8539 2.14312 37.3905 2.12437 36.9016L3.375 7.5H12.125V10.625C12.125 10.7908 12.1908 10.9497 12.3081 11.0669C12.4253 11.1842 12.5842 11.25 12.75 11.25C12.9158 11.25 13.0747 11.1842 13.1919 11.0669C13.3092 10.9497 13.375 10.7908 13.375 10.625V7.5H19.625V10.625C19.625 10.7908 19.6908 10.9497 19.8081 11.0669C19.9253 11.1842 20.0842 11.25 20.25 11.25C20.4158 11.25 20.5747 11.1842 20.6919 11.0669C20.8092 10.9497 20.875 10.7908 20.875 10.625V7.5H29.625L30.875 36.875C30.8621 37.3681 30.6605 37.8375 30.3117 38.1863C29.963 38.5352 29.4934 38.7369 29.0003 38.75ZM25.2359 23.4649C25.1646 21.1956 24.213 19.0431 22.5825 17.4631C20.9521 15.883 18.7707 14.9995 16.5003 14.9995C14.2299 14.9995 12.0486 15.883 10.4181 17.4631C8.78767 19.0431 7.83606 21.1956 7.76475 23.4649C7.3824 23.6796 7.06388 23.992 6.84173 24.37C6.61958 24.7481 6.50176 25.1784 6.50029 25.6169C6.49882 26.0554 6.61376 26.4865 6.83338 26.8661C7.05299 27.2456 7.36941 27.5601 7.75031 27.7774V29.375C7.75101 30.0378 8.01462 30.6733 8.48331 31.142C8.952 31.6107 9.58748 31.8743 10.2503 31.875H22.7503C23.4131 31.8743 24.0486 31.6107 24.5173 31.142C24.986 30.6733 25.2496 30.0378 25.2503 29.375V27.7773C25.6312 27.56 25.9476 27.2456 26.1672 26.866C26.3869 26.4864 26.5018 26.0554 26.5003 25.6169C26.4989 25.1783 26.381 24.7481 26.1589 24.37C25.9367 23.9919 25.6182 23.6796 25.2359 23.4649ZM16.5003 16.25C18.3799 16.2528 20.19 16.9607 21.5729 18.2336C22.9557 19.5066 23.8107 21.2521 23.9688 23.125H9.03194C9.19 21.2521 10.045 19.5066 11.4278 18.2337C12.8107 16.9607 14.6208 16.2528 16.5003 16.25ZM24.0003 29.375C23.9999 29.7064 23.8681 30.0241 23.6338 30.2585C23.3994 30.4928 23.0817 30.6246 22.7503 30.625H10.2503C9.91891 30.6246 9.60119 30.4928 9.36685 30.2585C9.13251 30.0241 9.00069 29.7064 9.00031 29.375V28.125H24.0003V29.375ZM24.0003 26.875H9.00031C8.66879 26.875 8.35085 26.7433 8.11643 26.5089C7.88201 26.2745 7.75031 25.9565 7.75031 25.625C7.75031 25.2935 7.88201 24.9755 8.11643 24.7411C8.35085 24.5067 8.66879 24.375 9.00031 24.375H24.0003C24.3318 24.375 24.6498 24.5067 24.8842 24.7411C25.1186 24.9755 25.2503 25.2935 25.2503 25.625C25.2503 25.9565 25.1186 26.2745 24.8842 26.5089C24.6498 26.7433 24.3318 26.875 24.0003 26.875ZM17.1253 20V20.625C17.1253 20.7908 17.0595 20.9497 16.9423 21.0669C16.825 21.1842 16.6661 21.25 16.5003 21.25C16.3346 21.25 16.1756 21.1842 16.0584 21.0669C15.9412 20.9497 15.8753 20.7908 15.8753 20.625V20C15.8753 19.8342 15.9412 19.6753 16.0584 19.5581C16.1756 19.4408 16.3346 19.375 16.5003 19.375C16.6661 19.375 16.825 19.4408 16.9423 19.5581C17.0595 19.6753 17.1253 19.8342 17.1253 20ZM20.2503 19.375V20C20.2503 20.1658 20.1845 20.3247 20.0673 20.4419C19.95 20.5592 19.7911 20.625 19.6253 20.625C19.4596 20.625 19.3006 20.5592 19.1834 20.4419C19.0662 20.3247 19.0003 20.1658 19.0003 20V19.375C19.0003 19.2092 19.0662 19.0503 19.1834 18.9331C19.3006 18.8158 19.4596 18.75 19.6253 18.75C19.7911 18.75 19.95 18.8158 20.0673 18.9331C20.1845 19.0503 20.2503 19.2092 20.2503 19.375ZM14.0003 19.375V20C14.0003 20.1658 13.9345 20.3247 13.8173 20.4419C13.7 20.5592 13.5411 20.625 13.3753 20.625C13.2096 20.625 13.0506 20.5592 12.9334 20.4419C12.8162 20.3247 12.7503 20.1658 12.7503 20V19.375C12.7503 19.2092 12.8162 19.0503 12.9334 18.9331C13.0506 18.8158 13.2096 18.75 13.3753 18.75C13.5411 18.75 13.7 18.8158 13.8173 18.9331C13.9345 19.0503 14.0003 19.2092 14.0003 19.375Z" fill="#1C304A" fill-opacity="0.52"/>
</svg>
